<?xml version="1.0" encoding="utf-8"?>
<!-- Generator: Adobe Illustrator 19.0.0, SVG Export Plug-In . SVG Version: 6.00 Build 0)  -->
<svg version="1.1" id="Layer_1" xmlns="http://www.w3.org/2000/svg" xmlns:xlink="http://www.w3.org/1999/xlink" x="0px" y="0px"
	 viewBox="0 0 48.6 60.2" style="enable-background:new 0 0 48.6 60.2;" xml:space="preserve">
<style type="text/css">
	.st0{fill:#EF4623;}
</style>
<g id="XMLID_108_">
	<path id="XMLID_240_" class="st0" d="M18.9,29.2C18,27.6,17.1,26,17.1,24c0-4,3.2-7.2,7.2-7.2c0.3,0,0.5,0.2,0.5,0.5
		s-0.2,0.5-0.5,0.5c-3.4,0-6.2,2.8-6.2,6.2c0,1.7,0.8,3.1,1.7,4.7L18.9,29.2z"/>
	<path id="XMLID_237_" class="st0" d="M30.7,44.8H17.9c-0.3,0-0.5-0.2-0.5-0.5c0-3.8-1.8-6.9-3.5-9.9c-1.7-3-3.5-6.2-3.5-10
		c0-7.7,6.3-14,14-14s14,6.3,14,14c0,3.9-1.8,7-3.5,10c-1.7,3-3.5,6.1-3.5,9.9C31.2,44.6,31,44.8,30.7,44.8z M18.4,43.8h11.9
		c0.1-3.8,1.9-6.9,3.6-9.9c1.8-3.1,3.4-6,3.4-9.6c0-7.2-5.8-13-13-13s-13,5.8-13,13c0,3.6,1.7,6.5,3.4,9.6
		C16.4,36.8,18.2,39.9,18.4,43.8z"/>
	<path id="XMLID_236_" class="st0" d="M30.4,48.6H18.1c-0.3,0-0.5-0.2-0.5-0.5s0.2-0.5,0.5-0.5h12.3c0.3,0,0.5,0.2,0.5,0.5
		S30.7,48.6,30.4,48.6z"/>
	<path id="XMLID_227_" class="st0" d="M30.4,52.5H18.1c-0.3,0-0.5-0.2-0.5-0.5s0.2-0.5,0.5-0.5h12.3c0.3,0,0.5,0.2,0.5,0.5
		S30.7,52.5,30.4,52.5z"/>
	<path id="XMLID_235_" class="st0" d="M24.3,60.2c-2.1,0-3.8-1.7-3.8-3.8c0-0.3,0.2-0.5,0.5-0.5s0.5,0.2,0.5,0.5
		c0,1.5,1.3,2.8,2.8,2.8s2.8-1.3,2.8-2.8c0-0.3,0.2-0.5,0.5-0.5s0.5,0.2,0.5,0.5C28.1,58.5,26.4,60.2,24.3,60.2z"/>
	<path id="XMLID_234_" class="st0" d="M24.3,6.6c-0.3,0-0.5-0.2-0.5-0.5V0.5C23.8,0.2,24,0,24.3,0s0.5,0.2,0.5,0.5v5.6
		C24.8,6.4,24.6,6.6,24.3,6.6z"/>
	<path id="XMLID_233_" class="st0" d="M11.4,11.9c-0.1,0-0.3,0-0.4-0.1l-4-4c-0.2-0.2-0.2-0.5,0-0.7s0.5-0.2,0.7,0l4,4
		c0.2,0.2,0.2,0.5,0,0.7C11.7,11.9,11.6,11.9,11.4,11.9z"/>
	<path id="XMLID_232_" class="st0" d="M6.1,24.8H0.5c-0.3,0-0.5-0.2-0.5-0.5s0.2-0.5,0.5-0.5h5.6c0.3,0,0.5,0.2,0.5,0.5
		S6.4,24.8,6.1,24.8z"/>
	<path id="XMLID_231_" class="st0" d="M7.5,41.6c-0.1,0-0.3,0-0.4-0.1c-0.2-0.2-0.2-0.5,0-0.7l4-4c0.2-0.2,0.5-0.2,0.7,0
		s0.2,0.5,0,0.7l-4,4C7.7,41.6,7.6,41.6,7.5,41.6z"/>
	<path id="XMLID_230_" class="st0" d="M37.2,11.9c-0.1,0-0.3,0-0.4-0.1c-0.2-0.2-0.2-0.5,0-0.7l4-4c0.2-0.2,0.5-0.2,0.7,0
		s0.2,0.5,0,0.7l-4,4C37.4,11.9,37.3,11.9,37.2,11.9z"/>
	<path id="XMLID_229_" class="st0" d="M48.1,24.8h-5.6c-0.3,0-0.5-0.2-0.5-0.5s0.2-0.5,0.5-0.5h5.6c0.3,0,0.5,0.2,0.5,0.5
		S48.4,24.8,48.1,24.8z"/>
	<path id="XMLID_228_" class="st0" d="M41.1,41.6c-0.1,0-0.3,0-0.4-0.1l-4-4c-0.2-0.2-0.2-0.5,0-0.7s0.5-0.2,0.7,0l4,4
		c0.2,0.2,0.2,0.5,0,0.7C41.4,41.6,41.3,41.6,41.1,41.6z"/>
</g>
</svg>
