<?xml version="1.0" encoding="utf-8"?>
<!-- Generator: Adobe Illustrator 19.0.0, SVG Export Plug-In . SVG Version: 6.00 Build 0)  -->
<svg version="1.1" id="Layer_1" xmlns="http://www.w3.org/2000/svg" xmlns:xlink="http://www.w3.org/1999/xlink" x="0px" y="0px"
	 viewBox="0 0 23.9 23.9" style="enable-background:new 0 0 23.9 23.9;" xml:space="preserve">
<style type="text/css">
	.st0{fill:#FFFFFF;}
	.st1{fill:#092040;}
</style>
<g id="XMLID_99_">
	<circle id="XMLID_220_" class="st0" cx="11.9" cy="11.9" r="11.9"/>
	<g id="XMLID_100_">
		<path id="XMLID_101_" class="st1" d="M7.2,6.4c0.5-0.1,1,0,1.3,0.5c0.2,0.2,0.2,0.5,0.2,0.8c0,0.2-0.1,0.4-0.2,0.6
			C8.3,8.4,8.1,8.6,7.8,8.6c-0.3,0.1-0.6,0-0.9-0.1c-0.4-0.2-0.7-0.6-0.6-1C6.2,7,6.6,6.5,7.2,6.4z"/>
		<path id="XMLID_102_" class="st1" d="M8.7,16.5c-0.8,0-1.7,0-2.5,0c0-2.3,0-4.6,0-6.9c0.8,0,1.7,0,2.5,0
			C8.7,11.8,8.7,14.1,8.7,16.5z"/>
		<path id="XMLID_103_" class="st1" d="M15.1,16.5c0-0.1,0-0.1,0-0.2c0-1.2,0-2.4,0-3.6c0-0.4-0.1-0.7-0.3-0.9
			c-0.3-0.4-0.8-0.4-1.2-0.1c-0.3,0.2-0.4,0.6-0.4,1c0,1.2,0,2.5,0,3.7c0,0.1,0,0.1,0,0.2c-0.8,0-1.7,0-2.5,0c0-2.3,0-4.6,0-6.9
			c0.8,0,1.6,0,2.5,0c0,0.3,0,0.7,0,1.1c0.1-0.1,0.1-0.1,0.2-0.2c0.3-0.4,0.7-0.6,1.1-0.7c0.4-0.1,0.8-0.1,1.3-0.1
			c0.4,0,0.7,0.2,1,0.4c0.5,0.4,0.7,0.9,0.9,1.5c0.1,0.4,0.1,0.7,0.1,1.1c0,1.3,0,2.5,0,3.8c0,0.1,0,0.1,0,0.2
			C16.8,16.5,16,16.5,15.1,16.5z"/>
	</g>
</g>
</svg>
