<?xml version="1.0" encoding="utf-8"?>
<!-- Generator: Adobe Illustrator 19.0.0, SVG Export Plug-In . SVG Version: 6.00 Build 0)  -->
<svg version="1.1" id="Layer_1" xmlns="http://www.w3.org/2000/svg" xmlns:xlink="http://www.w3.org/1999/xlink" x="0px" y="0px"
	 viewBox="0 0 60.5 60.2" style="enable-background:new 0 0 60.5 60.2;" xml:space="preserve">
<style type="text/css">
	.st0{fill:#EF4623;}
</style>
<g id="XMLID_148_">
	<path id="XMLID_107_" class="st0" d="M60,60.2H0.5C0.2,60.2,0,60,0,59.7s0.2-0.5,0.5-0.5H60c0.3,0,0.5,0.2,0.5,0.5
		S60.2,60.2,60,60.2z"/>
	<path id="XMLID_106_" class="st0" d="M24.9,32.5c-0.3,0-0.5-0.2-0.5-0.5V20.4c0-0.3,0.2-0.5,0.5-0.5h10.7c0.3,0,0.5,0.2,0.5,0.5
		v4.4c0,0.3-0.2,0.5-0.5,0.5s-0.5-0.2-0.5-0.5v-3.9h-9.7V32C25.4,32.3,25.2,32.5,24.9,32.5z"/>
	<path id="XMLID_105_" class="st0" d="M35.6,60.2H24.9c-0.3,0-0.5-0.2-0.5-0.5V38.8c0-0.3,0.2-0.5,0.5-0.5s0.5,0.2,0.5,0.5v20.4h9.7
		V32c0-0.3,0.2-0.5,0.5-0.5s0.5,0.2,0.5,0.5v27.7C36.1,60,35.9,60.2,35.6,60.2z"/>
	<path id="XMLID_102_" class="st0" d="M18.9,60.2H8.2c-0.3,0-0.5-0.2-0.5-0.5V40c0-0.3,0.2-0.5,0.5-0.5h10.7c0.3,0,0.5,0.2,0.5,0.5
		v19.7C19.4,60,19.2,60.2,18.9,60.2z M8.7,59.2h9.7V40.5H8.7V59.2z"/>
	<path id="XMLID_99_" class="st0" d="M52.3,60.2H41.6c-0.3,0-0.5-0.2-0.5-0.5V33.5c0-0.3,0.2-0.5,0.5-0.5h10.7
		c0.3,0,0.5,0.2,0.5,0.5v26.2C52.8,60,52.6,60.2,52.3,60.2z M42.1,59.2h9.7V34h-9.7V59.2z"/>
	<path id="XMLID_96_" class="st0" d="M30.3,33.7c-1.2,0-2.3-0.2-3.5-0.5c-3.4-0.9-6.3-3.1-8.1-6.2c-3.7-6.4-1.5-14.5,4.9-18.2
		c3.1-1.8,6.7-2.2,10.1-1.3c3.4,0.9,6.3,3.1,8.1,6.2c3.7,6.4,1.5,14.5-4.9,18.2C34.8,33.1,32.6,33.7,30.3,33.7z M30.2,8.1
		c-2.1,0-4.2,0.6-6.1,1.6c-5.9,3.4-7.9,10.9-4.5,16.8c3.4,5.9,10.9,7.9,16.8,4.5s7.9-10.9,4.5-16.8c-1.6-2.9-4.3-4.9-7.5-5.8
		C32.4,8.2,31.3,8.1,30.2,8.1z"/>
	<path id="XMLID_93_" class="st0" d="M45.9,15.3c-0.1,0-0.1,0-0.2,0c-0.1-0.1-0.3-0.2-0.3-0.3c-0.6-2.2-1.9-4.2-3.6-5.8
		c-0.1-0.1-0.2-0.3-0.2-0.4c0-0.2,0.1-0.3,0.2-0.4l12.3-7.7c0.9-0.6,2-0.8,3.1-0.5c1.1,0.2,2,0.9,2.5,1.8s0.8,2,0.5,3.1
		c-0.2,1.1-0.9,2-1.8,2.5l-12.3,7.7C46.1,15.2,46,15.3,45.9,15.3z M42.9,8.8c1.5,1.4,2.6,3.2,3.2,5.2l11.7-7.4
		c0.7-0.4,1.2-1.1,1.4-1.9c0.2-0.8,0-1.6-0.4-2.3c-0.4-0.7-1.1-1.2-1.9-1.4c-0.8-0.2-1.6,0-2.3,0.4L42.9,8.8z"/>
</g>
</svg>
