<?xml version="1.0" encoding="utf-8"?>
<!-- Generator: Adobe Illustrator 19.0.0, SVG Export Plug-In . SVG Version: 6.00 Build 0)  -->
<svg version="1.1" id="Layer_1" xmlns="http://www.w3.org/2000/svg" xmlns:xlink="http://www.w3.org/1999/xlink" x="0px" y="0px"
	 viewBox="0 0 23.9 23.9" style="enable-background:new 0 0 23.9 23.9;" xml:space="preserve">
<style type="text/css">
	.st0{fill:#FFFFFF;}
	.st1{fill:#092040;}
</style>
<g id="XMLID_108_">
	<circle id="XMLID_217_" class="st0" cx="11.9" cy="11.9" r="11.9"/>
	<path id="XMLID_109_" class="st1" d="M11,7.6c0,0,0.1-0.1,0.2-0.1l5.1,0.6V6.3L9.5,5C9.2,5,8.9,5,8.7,5.1C8,5.3,7.5,6,7.5,6.7v10.6
		c0,0.5,0.3,1,0.7,1.3c0.3,0.2,0.5,0.3,0.8,0.3c0.2,0,0.4,0,0.6-0.1l5.5-2.3c0.7-0.3,1.2-1,1.2-1.8V9.2L14,9.1V14
		c0,0.2-0.1,0.4-0.3,0.5l-2.8,1V7.8C10.9,7.7,10.9,7.6,11,7.6z"/>
</g>
</svg>
