<?xml version="1.0" encoding="utf-8"?>
<!-- Generator: Adobe Illustrator 19.0.0, SVG Export Plug-In . SVG Version: 6.00 Build 0)  -->
<svg version="1.1" id="Layer_1" xmlns="http://www.w3.org/2000/svg" xmlns:xlink="http://www.w3.org/1999/xlink" x="0px" y="0px"
	 viewBox="0 0 23.9 23.9" style="enable-background:new 0 0 23.9 23.9;" xml:space="preserve">
<style type="text/css">
	.st0{fill:#092040;}
</style>
<path id="XMLID_124_" class="st0" d="M11.9,0C5.3,0,0,5.3,0,11.9c0,6.6,5.3,11.9,11.9,11.9c6.6,0,11.9-5.3,11.9-11.9
	C23.9,5.3,18.5,0,11.9,0z M16.3,8.1l-5.1-0.6c-0.1,0-0.2,0-0.2,0.1c0,0-0.1,0.1-0.1,0.2v7.7l2.8-1c0.2-0.1,0.3-0.3,0.3-0.5V9.1
	l2.3,0.1v5.4c0,0.8-0.5,1.5-1.2,1.8l-5.5,2.3c-0.2,0.1-0.4,0.1-0.6,0.1c-0.3,0-0.6-0.1-0.8-0.3c-0.4-0.3-0.7-0.7-0.7-1.3V6.7
	C7.5,6,8,5.3,8.7,5.1C8.9,5,9.2,5,9.5,5l6.8,1.3V8.1z"/>
</svg>
