<?xml version="1.0" encoding="utf-8"?>
<!-- Generator: Adobe Illustrator 19.0.0, SVG Export Plug-In . SVG Version: 6.00 Build 0)  -->
<svg version="1.1" id="Layer_1" xmlns="http://www.w3.org/2000/svg" xmlns:xlink="http://www.w3.org/1999/xlink" x="0px" y="0px"
	 viewBox="0 0 60.4 60.2" style="enable-background:new 0 0 60.4 60.2;" xml:space="preserve">
<style type="text/css">
	.st0{fill:#EF4623;}
	.st1{fill:none;stroke:#EF4623;stroke-linejoin:round;stroke-miterlimit:10;}
</style>
<g id="XMLID_140_">
	<path id="XMLID_58_" class="st0" d="M33.3,40.3h-3.1v-1h3.1c1.6,0,4.2-4.2,4.3-4.9c-0.2-0.4-2.4-1.2-3.3-1.4
		c-0.8-0.3-1.2-0.4-1.4-0.5c-0.6-0.4-0.8-2.1-0.8-3.1c0-0.2,0.1-0.3,0.2-0.4c1.4-1.1,1.9-3.1,1.9-3.1c0-0.1,0.1-0.3,0.2-0.3
		c0.1-0.1,0.3-0.1,0.4,0c0,0,0.1-0.1,0.2-0.2c0.5-0.7,0.7-2.2,0.4-2.5c-0.1-0.1-0.2-0.1-0.2-0.1c-0.1,0.2-0.3,0.3-0.5,0.2
		c-0.2-0.1-0.3-0.3-0.3-0.5v-1.8c0-2.4-1.9-4.3-4.3-4.3v-1c2.9,0,5.3,2.4,5.3,5.3v1.1c0.3,0,0.7,0.2,0.9,0.5
		c0.6,0.8,0.2,2.8-0.5,3.7c-0.3,0.4-0.6,0.5-0.8,0.6c-0.2,0.7-0.8,2.1-2,3.1c0,1,0.2,1.9,0.4,2.1c0.1,0.1,0.7,0.2,1.1,0.4
		c2.3,0.8,4,1.4,4,2.4C38.6,35.2,35.6,40.3,33.3,40.3z"/>
	<path id="XMLID_57_" class="st0" d="M30.2,40.3h-3.1c-2.4,0-5.3-5-5.3-5.9c0-1.1,1.6-1.7,4-2.4c0.5-0.1,1-0.3,1.2-0.4
		c0.1-0.2,0.3-1.1,0.4-2.1c-1.2-1-1.8-2.4-2-3.1c-0.3,0-0.5-0.2-0.8-0.6c-0.7-0.9-1-2.9-0.5-3.7c0.2-0.3,0.5-0.5,0.9-0.5v-1.1
		c0-2.9,2.4-5.3,5.3-5.3v1c-2.4,0-4.3,1.9-4.3,4.3v1.8c0,0.2-0.1,0.4-0.4,0.5c-0.2,0.1-0.4,0-0.6-0.2c0,0-0.1,0-0.1,0.1
		c-0.2,0.3-0.1,1.8,0.4,2.5c0.1,0.1,0.2,0.2,0.2,0.2c0.1,0,0.3,0,0.4,0c0.1,0.1,0.2,0.2,0.2,0.3c0,0,0.5,2.1,1.9,3.1
		c0.1,0.1,0.2,0.3,0.2,0.4c0,1-0.2,2.7-0.8,3.1c-0.2,0.1-0.6,0.3-1.4,0.5c-0.9,0.3-3.1,1-3.3,1.5c0.1,0.6,2.7,4.8,4.3,4.8h3.1V40.3z
		"/>
	<path id="XMLID_54_" class="st0" d="M9.5,18.9C4.2,18.9,0,14.7,0,9.5S4.2,0,9.5,0s9.5,4.2,9.5,9.5S14.7,18.9,9.5,18.9z M9.5,1
		C4.8,1,1,4.8,1,9.5c0,4.7,3.8,8.5,8.5,8.5c4.7,0,8.5-3.8,8.5-8.5C17.9,4.8,14.1,1,9.5,1z"/>
	<path id="XMLID_142_" class="st1" d="M44.6,44.6"/>
	<path id="XMLID_53_" class="st0" d="M20.7,21.2c-0.1,0-0.3,0-0.4-0.1l-4.9-4.9c-0.2-0.2-0.2-0.5,0-0.7s0.5-0.2,0.7,0l4.9,4.9
		c0.2,0.2,0.2,0.5,0,0.7C21,21.2,20.9,21.2,20.7,21.2z"/>
	<path id="XMLID_50_" class="st0" d="M50.9,18.9c-5.2,0-9.5-4.2-9.5-9.5S45.7,0,50.9,0s9.5,4.2,9.5,9.5S56.2,18.9,50.9,18.9z
		 M50.9,1c-4.7,0-8.5,3.8-8.5,8.5c0,4.7,3.8,8.5,8.5,8.5s8.5-3.8,8.5-8.5C59.4,4.8,55.6,1,50.9,1z"/>
	<path id="XMLID_49_" class="st0" d="M39.7,21.2c-0.1,0-0.3,0-0.4-0.1c-0.2-0.2-0.2-0.5,0-0.7l4.9-4.9c0.2-0.2,0.5-0.2,0.7,0
		s0.2,0.5,0,0.7L40,21.1C39.9,21.2,39.8,21.2,39.7,21.2z"/>
	<path id="XMLID_46_" class="st0" d="M9.5,60.2C4.2,60.2,0,56,0,50.7s4.2-9.5,9.5-9.5s9.5,4.2,9.5,9.5S14.7,60.2,9.5,60.2z
		 M9.5,42.3c-4.7,0-8.5,3.8-8.5,8.5c0,4.7,3.8,8.5,8.5,8.5c4.7,0,8.5-3.8,8.5-8.5C17.9,46.1,14.1,42.3,9.5,42.3z"/>
	<path id="XMLID_45_" class="st0" d="M15.8,44.9c-0.1,0-0.3,0-0.4-0.1c-0.2-0.2-0.2-0.5,0-0.7l4.9-4.9c0.2-0.2,0.5-0.2,0.7,0
		s0.2,0.5,0,0.7l-4.9,4.9C16.1,44.9,15.9,44.9,15.8,44.9z"/>
	<path id="XMLID_42_" class="st0" d="M50.9,60.2c-5.2,0-9.5-4.2-9.5-9.5s4.2-9.5,9.5-9.5s9.5,4.2,9.5,9.5S56.2,60.2,50.9,60.2z
		 M50.9,42.3c-4.7,0-8.5,3.8-8.5,8.5c0,4.7,3.8,8.5,8.5,8.5s8.5-3.8,8.5-8.5C59.4,46.1,55.6,42.3,50.9,42.3z"/>
	<path id="XMLID_41_" class="st0" d="M44.6,44.9c-0.1,0-0.3,0-0.4-0.1l-4.9-4.9c-0.2-0.2-0.2-0.5,0-0.7s0.5-0.2,0.7,0l4.9,4.9
		c0.2,0.2,0.2,0.5,0,0.7C44.9,44.9,44.7,44.9,44.6,44.9z"/>
</g>
</svg>
