<?xml version="1.0" encoding="utf-8"?>
<!-- Generator: Adobe Illustrator 19.0.0, SVG Export Plug-In . SVG Version: 6.00 Build 0)  -->
<svg version="1.1" id="Layer_1" xmlns="http://www.w3.org/2000/svg" xmlns:xlink="http://www.w3.org/1999/xlink" x="0px" y="0px"
	 viewBox="0 0 40.2 60.2" style="enable-background:new 0 0 40.2 60.2;" xml:space="preserve">
<style type="text/css">
	.st0{fill:#EF4623;}
</style>
<g id="XMLID_108_">
	<path id="XMLID_234_" class="st0" d="M35.2,60.2c-0.1,0-0.1,0-0.2,0c-0.3-0.1-0.4-0.4-0.2-0.7l3.6-7.7c0.6-1.3,0.9-2.7,0.9-4.1
		v-8.3c0-0.3,0.2-0.5,0.5-0.5s0.5,0.2,0.5,0.5v8.3c0,1.6-0.3,3.1-1,4.5l-3.6,7.7C35.5,60.1,35.4,60.2,35.2,60.2z"/>
	<path id="XMLID_233_" class="st0" d="M9.8,60.2c-0.1,0-0.3,0-0.4-0.1l-6-5.9c-1.1-1.1-1.8-2.7-1.8-4.3V34.2c0-0.3,0.2-0.5,0.5-0.5
		c3.1,0,5.7,1.7,7.1,4.2V13.6c0-2.1,1.4-3.9,3.4-4.2c1.3-0.3,2.6,0.1,3.6,0.9c1,0.8,1.6,2,1.6,3.3v17.9c0,0.3-0.2,0.5-0.5,0.5
		s-0.5-0.2-0.5-0.5V13.5c0-1-0.4-1.9-1.2-2.5c-0.8-0.6-1.7-0.9-2.7-0.7c-1.5,0.3-2.6,1.7-2.6,3.3v28.2c0,0.3-0.2,0.5-0.5,0.5
		s-0.5-0.2-0.5-0.5c0-3.7-2.9-6.8-6.6-7.1V50c0,1.3,0.5,2.6,1.5,3.5l6,5.9c0.2,0.2,0.2,0.5,0,0.7C10,60.2,9.9,60.2,9.8,60.2z"/>
	<path id="XMLID_232_" class="st0" d="M20.6,18.8c-0.1,0-0.2,0-0.3-0.1c-0.2-0.2-0.3-0.5-0.1-0.7c0.9-1.3,1.4-2.9,1.4-4.5
		c0-4.4-3.6-8-8-8c-4.4,0-8,3.6-8,8c0,1.5,0.4,3,1.3,4.3c0.1,0.2,0.1,0.5-0.2,0.7c-0.2,0.1-0.5,0.1-0.7-0.2
		c-0.9-1.4-1.4-3.1-1.4-4.8c0-5,4.1-9,9-9s9,4.1,9,9c0,1.8-0.5,3.6-1.5,5.1C20.9,18.7,20.7,18.8,20.6,18.8z"/>
	<path id="XMLID_231_" class="st0" d="M22.3,23.6c-0.1,0-0.3-0.1-0.4-0.2c-0.2-0.2-0.2-0.5,0-0.7c2.6-2.4,4-5.7,4-9.2
		C26,6.6,20.4,1,13.5,1C6.6,1,1,6.6,1,13.5c0,3.5,1.5,6.8,4,9.2c0.2,0.2,0.2,0.5,0,0.7c-0.2,0.2-0.5,0.2-0.7,0
		C1.6,20.9,0,17.2,0,13.5C0,6.1,6.1,0,13.5,0S27,6.1,27,13.5c0,3.8-1.6,7.4-4.3,9.9C22.6,23.5,22.4,23.6,22.3,23.6z"/>
	<path id="XMLID_230_" class="st0" d="M32.2,35.2c-0.3,0-0.5-0.2-0.5-0.5c0-1.8-1.5-3.2-3.2-3.2s-3.2,1.5-3.2,3.2
		c0,0.3-0.2,0.5-0.5,0.5s-0.5-0.2-0.5-0.5c0-2.3,1.9-4.2,4.2-4.2s4.2,1.9,4.2,4.2C32.7,35,32.5,35.2,32.2,35.2z"/>
	<path id="XMLID_236_" class="st0" d="M24.7,33.7c-0.3,0-0.5-0.2-0.5-0.5c0-1.8-1.5-3.2-3.2-3.2s-3.2,1.5-3.2,3.2
		c0,0.3-0.2,0.5-0.5,0.5s-0.5-0.2-0.5-0.5c0-2.3,1.9-4.2,4.2-4.2s4.2,1.9,4.2,4.2C25.2,33.5,25,33.7,24.7,33.7z"/>
	<path id="XMLID_237_" class="st0" d="M9.8,60.2c-0.1,0-0.3,0-0.4-0.1l-6-5.9c-1.1-1.1-1.8-2.7-1.8-4.3V34.2c0-0.3,0.2-0.5,0.5-0.5
		c3.1,0,5.7,1.7,7.1,4.2V13.5c0-2.3,1.9-4.2,4.2-4.2s4.2,1.9,4.2,4.2v19.7c0,0.3-0.2,0.5-0.5,0.5s-0.5-0.2-0.5-0.5V13.5
		c0-1.8-1.5-3.2-3.2-3.2s-3.2,1.5-3.2,3.2v28.3c0,0.3-0.2,0.5-0.5,0.5s-0.5-0.2-0.5-0.5c0-3.7-2.9-6.8-6.6-7.1V50
		c0,1.3,0.5,2.6,1.5,3.5l6,5.9c0.2,0.2,0.2,0.5,0,0.7C10,60.2,9.9,60.2,9.8,60.2z"/>
	<path id="XMLID_238_" class="st0" d="M39.7,37.1c-0.3,0-0.5-0.2-0.5-0.5c0-1.8-1.5-3.2-3.2-3.2s-3.2,1.5-3.2,3.2
		c0,0.3-0.2,0.5-0.5,0.5s-0.5-0.2-0.5-0.5c0-2.3,1.9-4.2,4.2-4.2s4.2,1.9,4.2,4.2C40.2,36.9,39.9,37.1,39.7,37.1z"/>
	<path id="XMLID_264_" class="st0" d="M35.2,60.2c-0.1,0-0.1,0-0.2,0c-0.3-0.1-0.4-0.4-0.2-0.7l3.6-7.7c0.6-1.3,0.9-2.7,0.9-4.1
		V36.6c0-0.3,0.2-0.5,0.5-0.5s0.5,0.2,0.5,0.5v11.1c0,1.6-0.3,3.1-1,4.5l-3.6,7.7C35.5,60.1,35.4,60.2,35.2,60.2z"/>
	<path id="XMLID_263_" class="st0" d="M9.8,47.6c-0.3,0-0.5-0.2-0.5-0.5v-5.3c0-0.3,0.2-0.5,0.5-0.5s0.5,0.2,0.5,0.5v5.3
		C10.3,47.4,10,47.6,9.8,47.6z"/>
	<path id="XMLID_240_" class="st0" d="M24.7,35.2c-0.3,0-0.5-0.2-0.5-0.5v-1.5c0-0.3,0.2-0.5,0.5-0.5s0.5,0.2,0.5,0.5v1.5
		C25.2,35,25,35.2,24.7,35.2z"/>
	<path id="XMLID_239_" class="st0" d="M32.2,37.1c-0.3,0-0.5-0.2-0.5-0.5v-1.9c0-0.3,0.2-0.5,0.5-0.5s0.5,0.2,0.5,0.5v1.9
		C32.7,36.9,32.5,37.1,32.2,37.1z"/>
</g>
</svg>
