<?xml version="1.0" encoding="utf-8"?>
<!-- Generator: Adobe Illustrator 19.0.0, SVG Export Plug-In . SVG Version: 6.00 Build 0)  -->
<svg version="1.1" id="Layer_1" xmlns="http://www.w3.org/2000/svg" xmlns:xlink="http://www.w3.org/1999/xlink" x="0px" y="0px"
	 viewBox="0 0 54.8 60.2" style="enable-background:new 0 0 54.8 60.2;" xml:space="preserve">
<style type="text/css">
	.st0{fill:#EF4623;}
</style>
<g id="XMLID_214_">
	<path id="XMLID_97_" class="st0" d="M23.8,36.2c-3.8,0-6.9-3.1-6.9-6.9s3.1-6.9,6.9-6.9s6.9,3.1,6.9,6.9S27.6,36.2,23.8,36.2z
		 M23.8,23.3c-3.3,0-5.9,2.7-5.9,5.9s2.7,5.9,5.9,5.9s5.9-2.7,5.9-5.9S27,23.3,23.8,23.3z"/>
	<path id="XMLID_94_" class="st0" d="M46.8,10.7c-3,0-5.4-2.4-5.4-5.4c0-3,2.4-5.4,5.4-5.4s5.4,2.4,5.4,5.4
		C52.2,8.3,49.8,10.7,46.8,10.7z M46.8,1c-2.4,0-4.4,2-4.4,4.4s2,4.4,4.4,4.4s4.4-2,4.4-4.4S49.2,1,46.8,1z"/>
	<path id="XMLID_91_" class="st0" d="M30.2,60.2c-3,0-5.4-2.4-5.4-5.4s2.4-5.4,5.4-5.4s5.4,2.4,5.4,5.4S33.1,60.2,30.2,60.2z
		 M30.2,50.4c-2.4,0-4.4,2-4.4,4.4s2,4.4,4.4,4.4s4.4-2,4.4-4.4S32.6,50.4,30.2,50.4z"/>
	<path id="XMLID_88_" class="st0" d="M4,44.1c-2.2,0-4-1.8-4-4s1.8-4,4-4s4,1.8,4,4S6.3,44.1,4,44.1z M4,37c-1.7,0-3,1.4-3,3
		s1.4,3,3,3s3-1.4,3-3S5.7,37,4,37z"/>
	<path id="XMLID_58_" class="st0" d="M10.1,8.1c-2.2,0-4-1.8-4-4s1.8-4,4-4c2.2,0,4,1.8,4,4S12.3,8.1,10.1,8.1z M10.1,1
		c-1.7,0-3,1.4-3,3s1.4,3,3,3s3-1.4,3-3S11.8,1,10.1,1z"/>
	<path id="XMLID_55_" class="st0" d="M50.8,48.6c-2.2,0-4-1.8-4-4s1.8-4,4-4s4,1.8,4,4S53,48.6,50.8,48.6z M50.8,41.5
		c-1.7,0-3,1.4-3,3s1.4,3,3,3s3-1.4,3-3S52.4,41.5,50.8,41.5z"/>
	
		<rect id="XMLID_54_" x="35.3" y="5.8" transform="matrix(0.7187 0.6953 -0.6953 0.7187 21.7248 -20.2046)" class="st0" width="1" height="21.9"/>
	
		<rect id="XMLID_52_" x="19.6" y="42.3" transform="matrix(0.2439 0.9698 -0.9698 0.2439 62.0168 6.0106)" class="st0" width="15.1" height="1"/>
	<g id="XMLID_51_">
		<path id="XMLID_76_" class="st0" d="M47.7,43.3c-0.1,0-0.2,0-0.2-0.1l-1.7-1c-0.2-0.1-0.3-0.4-0.2-0.7c0.1-0.2,0.4-0.3,0.7-0.2
			l1.7,1c0.2,0.1,0.3,0.4,0.2,0.7C48.1,43.2,47.9,43.3,47.7,43.3z"/>
		<path id="XMLID_53_" class="st0" d="M43,40.6c-0.1,0-0.2,0-0.2-0.1l-3-1.7c-0.2-0.1-0.3-0.4-0.2-0.7c0.1-0.2,0.4-0.3,0.7-0.2
			l3,1.7c0.2,0.1,0.3,0.4,0.2,0.7C43.3,40.5,43.2,40.6,43,40.6z M37,37.3c-0.1,0-0.2,0-0.2-0.1l-3-1.7c-0.2-0.1-0.3-0.4-0.2-0.7
			c0.1-0.2,0.4-0.3,0.7-0.2l3,1.7c0.2,0.1,0.3,0.4,0.2,0.7C37.4,37.2,37.2,37.3,37,37.3z"/>
		<path id="XMLID_81_" class="st0" d="M31.1,33.9c-0.1,0-0.2,0-0.2-0.1l-1.7-1c-0.2-0.1-0.3-0.4-0.2-0.7c0.1-0.2,0.4-0.3,0.7-0.2
			l1.7,1c0.2,0.1,0.3,0.4,0.2,0.7C31.4,33.8,31.3,33.9,31.1,33.9z"/>
	</g>
	
		<rect id="XMLID_50_" x="12.1" y="29.1" transform="matrix(0.4805 0.877 -0.877 0.4805 37.5556 7.2951)" class="st0" width="1" height="12.5"/>
	<g id="XMLID_77_">
		<path id="XMLID_80_" class="st0" d="M12.5,9c-0.2,0-0.3-0.1-0.4-0.3l-0.7-1.3c-0.1-0.2,0-0.5,0.2-0.7c0.2-0.1,0.5,0,0.7,0.2
			l0.7,1.3c0.1,0.2,0,0.5-0.2,0.7C12.7,8.9,12.6,9,12.5,9z"/>
		<path id="XMLID_79_" class="st0" d="M18.5,20c-0.2,0-0.3-0.1-0.4-0.3L16.5,17c-0.1-0.2,0-0.5,0.2-0.7c0.2-0.1,0.5,0,0.7,0.2
			l1.5,2.8c0.1,0.2,0,0.5-0.2,0.7C18.6,20,18.6,20,18.5,20z M15.5,14.5c-0.2,0-0.3-0.1-0.4-0.3l-1.5-2.8c-0.1-0.2,0-0.5,0.2-0.7
			c0.2-0.1,0.5,0,0.7,0.2l1.5,2.8c0.1,0.2,0,0.5-0.2,0.7C15.6,14.5,15.6,14.5,15.5,14.5z"/>
		<path id="XMLID_82_" class="st0" d="M20.7,24.1c-0.2,0-0.3-0.1-0.4-0.3l-0.7-1.3c-0.1-0.2,0-0.5,0.2-0.7c0.2-0.1,0.5,0,0.7,0.2
			l0.7,1.3c0.1,0.2,0,0.5-0.2,0.7C20.9,24.1,20.8,24.1,20.7,24.1z"/>
	</g>
</g>
</svg>
