<?xml version="1.0" encoding="utf-8"?>
<!-- Generator: Adobe Illustrator 19.0.0, SVG Export Plug-In . SVG Version: 6.00 Build 0)  -->
<svg version="1.1" id="Layer_1" xmlns="http://www.w3.org/2000/svg" xmlns:xlink="http://www.w3.org/1999/xlink" x="0px" y="0px"
	 viewBox="0 0 23.9 23.9" style="enable-background:new 0 0 23.9 23.9;" xml:space="preserve">
<style type="text/css">
	.st0{fill:#092040;}
</style>
<path id="XMLID_150_" class="st0" d="M11.9,0C5.3,0,0,5.3,0,11.9s5.3,11.9,11.9,11.9c6.6,0,11.9-5.3,11.9-11.9S18.5,0,11.9,0z
	 M16.7,9.5c0,0.1,0,0.2,0,0.3c0,3.3-2.5,7.1-7.1,7.1c-1.4,0-2.7-0.4-3.8-1.1c0.2,0,0.4,0,0.6,0c1.2,0,2.2-0.4,3.1-1.1
	c-1.1,0-2-0.7-2.3-1.7c0.2,0,0.3,0,0.5,0c0.2,0,0.4,0,0.7-0.1c-1.1-0.2-2-1.2-2-2.4c0,0,0,0,0,0c0.3,0.2,0.7,0.3,1.1,0.3
	c-0.7-0.4-1.1-1.2-1.1-2.1c0-0.5,0.1-0.9,0.3-1.2C7.9,9,9.8,10,11.8,10.1c0-0.2-0.1-0.4-0.1-0.6c0-1.4,1.1-2.5,2.5-2.5
	c0.7,0,1.4,0.3,1.8,0.8c0.6-0.1,1.1-0.3,1.6-0.6c-0.2,0.6-0.6,1.1-1.1,1.4c0.5-0.1,1-0.2,1.4-0.4C17.6,8.7,17.2,9.1,16.7,9.5z"/>
</svg>
