<?xml version="1.0" encoding="utf-8"?>
<!-- Generator: Adobe Illustrator 19.0.0, SVG Export Plug-In . SVG Version: 6.00 Build 0)  -->
<svg version="1.1" id="Layer_1" xmlns="http://www.w3.org/2000/svg" xmlns:xlink="http://www.w3.org/1999/xlink" x="0px" y="0px"
	 viewBox="0 0 23.9 23.9" style="enable-background:new 0 0 23.9 23.9;" xml:space="preserve">
<style type="text/css">
	.st0{fill:#FFFFFF;}
	.st1{fill:#092040;}
</style>
<g id="XMLID_97_">
	<circle id="XMLID_217_" class="st0" cx="11.9" cy="11.9" r="11.9"/>
	<path id="XMLID_98_" class="st1" d="M18,8.2c-0.4,0.2-0.9,0.3-1.4,0.4c0.5-0.3,0.9-0.8,1.1-1.4c-0.5,0.3-1,0.5-1.6,0.6
		C15.6,7.3,15,7,14.3,7c-1.4,0-2.5,1.1-2.5,2.5c0,0.2,0,0.4,0.1,0.6C9.8,10,7.9,9,6.7,7.5C6.5,7.8,6.4,8.3,6.4,8.7
		c0,0.9,0.4,1.6,1.1,2.1c-0.4,0-0.8-0.1-1.1-0.3c0,0,0,0,0,0c0,1.2,0.9,2.2,2,2.4C8.1,13,7.9,13,7.7,13c-0.2,0-0.3,0-0.5,0
		c0.3,1,1.2,1.7,2.3,1.7c-0.8,0.7-1.9,1.1-3.1,1.1c-0.2,0-0.4,0-0.6,0c1.1,0.7,2.4,1.1,3.8,1.1c4.6,0,7.1-3.8,7.1-7.1
		c0-0.1,0-0.2,0-0.3C17.2,9.1,17.6,8.7,18,8.2z"/>
</g>
</svg>
