<?xml version="1.0" encoding="utf-8"?>
<!-- Generator: Adobe Illustrator 19.0.0, SVG Export Plug-In . SVG Version: 6.00 Build 0)  -->
<svg version="1.1" id="Layer_1" xmlns="http://www.w3.org/2000/svg" xmlns:xlink="http://www.w3.org/1999/xlink" x="0px" y="0px"
	 viewBox="0 0 23.9 23.9" style="enable-background:new 0 0 23.9 23.9;" xml:space="preserve">
<style type="text/css">
	.st0{fill:#092040;}
</style>
<g id="XMLID_200_">
	<path id="XMLID_204_" class="st0" d="M11.9,0C5.3,0,0,5.3,0,11.9c0,6.6,5.3,11.9,11.9,11.9c6.6,0,11.9-5.3,11.9-11.9
		C23.9,5.3,18.5,0,11.9,0z M19,14.5c-0.1,1-0.8,2.2-1.8,2.4c-3.3,0.3-7.2,0.2-10.6,0c-1.1-0.1-1.8-1.4-1.8-2.4c-0.2-2-0.2-3.2,0-5.2
		c0.1-1,0.8-2.2,1.8-2.3c3.4-0.3,7.3-0.2,10.6,0C18.4,7,19,8.2,19,9.2C19.2,11.2,19.2,12.5,19,14.5z"/>
	<polygon id="XMLID_205_" class="st0" points="10.5,14.8 14.8,11.9 10.5,9 	"/>
</g>
</svg>
