<?xml version="1.0" encoding="utf-8"?>
<!-- Generator: Adobe Illustrator 19.0.0, SVG Export Plug-In . SVG Version: 6.00 Build 0)  -->
<svg version="1.1" id="Layer_1" xmlns="http://www.w3.org/2000/svg" xmlns:xlink="http://www.w3.org/1999/xlink" x="0px" y="0px"
	 viewBox="0 0 23.9 23.9" style="enable-background:new 0 0 23.9 23.9;" xml:space="preserve">
<style type="text/css">
	.st0{fill:#FFFFFF;}
	.st1{fill:#092040;}
</style>
<g id="XMLID_104_">
	<circle id="XMLID_219_" class="st0" cx="11.9" cy="11.9" r="11.9"/>
	<path id="XMLID_105_" class="st1" d="M19,9.2C19,8.2,18.4,7,17.2,7C13.9,6.7,10,6.7,6.6,7c-1,0.1-1.8,1.4-1.8,2.3
		c-0.2,2-0.2,3.2,0,5.2c0.1,1,0.8,2.2,1.8,2.4c3.4,0.2,7.3,0.3,10.6,0c1-0.2,1.8-1.4,1.8-2.4C19.2,12.5,19.2,11.2,19,9.2z
		 M10.5,14.8V9l4.3,2.9L10.5,14.8z"/>
</g>
</svg>
