<?xml version="1.0" encoding="utf-8"?>
<!-- Generator: Adobe Illustrator 19.0.0, SVG Export Plug-In . SVG Version: 6.00 Build 0)  -->
<svg version="1.1" id="Layer_1" xmlns="http://www.w3.org/2000/svg" xmlns:xlink="http://www.w3.org/1999/xlink" x="0px" y="0px"
	 viewBox="0 0 239.1 242.2" style="enable-background:new 0 0 239.1 242.2;" xml:space="preserve">
<style type="text/css">
	.st0{fill:none;stroke:#374B68;stroke-linejoin:round;stroke-miterlimit:10;}
	.st1{fill:#374B68;}
	.st2{font-family:'GTHaptikBold';}
	.st3{font-size:5.4257px;}
	.st4{fill:none;stroke:#4F62AD;stroke-linecap:round;stroke-linejoin:round;stroke-miterlimit:10;}
	.st5{fill:none;stroke:#EF4623;stroke-linecap:round;stroke-linejoin:round;stroke-miterlimit:10;}
	.st6{fill:#4F62AD;}
	.st7{font-size:4.5214px;}
	.st8{fill:#EF4623;}
	.st9{font-size:4.5215px;}
	.st10{fill:none;stroke:#EF4623;stroke-width:3;stroke-linejoin:round;stroke-miterlimit:10;}
	.st11{fill:none;}
	.st12{font-family:'GTHaptikRegular';}
	.st13{font-size:8.1978px;}
</style>
<g id="XMLID_228_">
	<circle id="XMLID_368_" class="st0" cx="210.2" cy="210.2" r="28.3"/>
	<text id="XMLID_229_" transform="matrix(1 0 0 1 192.6539 211.993)" class="st1 st2 st3">INNOVATION</text>
	<circle id="XMLID_366_" class="st0" cx="28.8" cy="210.2" r="28.3"/>
	<text id="XMLID_230_" transform="matrix(1 0 0 1 11.087 211.993)"><tspan x="0" y="0" class="st1 st2 st3">COMPETITOR</tspan><tspan x="8.2" y="6.1" class="st1 st2 st3">MOVES</tspan></text>
	<circle id="XMLID_364_" class="st0" cx="28.8" cy="28.8" r="28.3"/>
	<g id="XMLID_231_">
		<g id="XMLID_232_">
			<polyline id="XMLID_363_" class="st4" points="94.3,84.9 94.3,89.3 89.9,89.3 			"/>
			<line id="XMLID_362_" class="st4" x1="94.3" y1="89.3" x2="57.8" y2="52.8"/>
		</g>
		<g id="XMLID_233_">
			<polyline id="XMLID_360_" class="st5" points="51.4,60.8 51.4,56.4 55.9,56.4 			"/>
			<line id="XMLID_359_" class="st5" x1="51.4" y1="56.4" x2="89.3" y2="94.3"/>
		</g>
	</g>
	<text id="XMLID_234_" transform="matrix(1 0 0 1 17.7941 28.0277)"><tspan x="0" y="0" class="st1 st2 st3">MARKET</tspan><tspan x="0.4" y="6.1" class="st1 st2 st3">TRENDS</tspan></text>
	<text id="XMLID_235_" transform="matrix(0.7071 0.7071 -0.7071 0.7071 71.2631 61.2883)" class="st6 st2 st7">MANAGE</text>
	<text id="XMLID_236_" transform="matrix(0.7071 0.7071 -0.7071 0.7071 60.2285 74.919)" class="st8 st2 st7">DIRECT</text>
	<g id="XMLID_237_">
		<g id="XMLID_238_">
			<polyline id="XMLID_353_" class="st4" points="84.9,144.8 89.3,144.8 89.3,149.2 			"/>
			<line id="XMLID_352_" class="st4" x1="89.3" y1="144.8" x2="52.8" y2="181.3"/>
		</g>
		<g id="XMLID_239_">
			<polyline id="XMLID_350_" class="st5" points="60.8,187.6 56.4,187.6 56.4,183.2 			"/>
			<line id="XMLID_349_" class="st5" x1="56.4" y1="187.6" x2="94.3" y2="149.7"/>
		</g>
	</g>
	<text id="XMLID_240_" transform="matrix(0.7071 -0.7071 0.7071 0.7071 60.8412 168.2746)" class="st6 st2 st9">RESPOND</text>
	<text id="XMLID_241_" transform="matrix(0.7071 -0.7071 0.7071 0.7071 76.3742 177.4069)" class="st8 st2 st9">DEFY</text>
	<circle id="XMLID_344_" class="st0" cx="210.2" cy="28.8" r="28.3"/>
	<circle id="XMLID_343_" class="st10" cx="119.5" cy="119.5" r="32.3"/>
	<g id="XMLID_242_">
		<g id="XMLID_243_">
			<polyline id="XMLID_342_" class="st4" points="144.8,84.9 144.8,89.3 149.2,89.3 			"/>
			<line id="XMLID_341_" class="st4" x1="144.8" y1="89.3" x2="182.7" y2="51.4"/>
		</g>
		<g id="XMLID_244_">
			<polyline id="XMLID_339_" class="st5" points="187.6,60.8 187.6,56.4 183.2,56.4 			"/>
			<line id="XMLID_338_" class="st5" x1="187.6" y1="56.4" x2="149.7" y2="94.3"/>
		</g>
	</g>
	<text id="XMLID_245_" transform="matrix(1 0 0 1 200.6822 28.0277)"><tspan x="0" y="0" class="st1 st2 st3">CLIENT</tspan><tspan x="-4.5" y="6.1" class="st1 st2 st3">DIRECTIVE</tspan></text>
	<text id="XMLID_246_" transform="matrix(0.7071 -0.7071 0.7071 0.7071 154.9171 74.209)" class="st6 st2 st9">FOLLOW</text>
	<text id="XMLID_247_" transform="matrix(0.7071 -0.7071 0.7071 0.7071 165.2183 88.5738)" class="st8 st2 st9">ENLIGHTEN</text>
	<g id="XMLID_248_">
		<g id="XMLID_249_">
			<polyline id="XMLID_332_" class="st4" points="154.2,144.8 149.7,144.8 149.7,149.2 			"/>
			<line id="XMLID_331_" class="st4" x1="149.7" y1="144.8" x2="187.6" y2="182.7"/>
		</g>
		<g id="XMLID_250_">
			<polyline id="XMLID_329_" class="st5" points="178.3,187.6 182.7,187.6 182.7,183.2 			"/>
			<line id="XMLID_328_" class="st5" x1="182.7" y1="187.6" x2="144.8" y2="149.7"/>
		</g>
	</g>
	<text id="XMLID_251_" transform="matrix(0.7071 0.7071 -0.7071 0.7071 162.9154 152.9408)" class="st6 st2 st7">FACILITATE</text>
	<text id="XMLID_252_" transform="matrix(0.7071 0.7071 -0.7071 0.7071 152.9358 167.6264)" class="st8 st2 st7">INFORM</text>
	<g id="XMLID_319_">
		<rect id="XMLID_95_" x="93.4" y="105.4" class="st11" width="52.3" height="28.2"/>
		<text id="XMLID_93_" transform="matrix(0.9416 0 0 1 106.5145 112.2984)"><tspan x="0" y="0" class="st8 st12 st13">HUMAN</tspan><tspan x="-2.3" y="10.2" class="st8 st12 st13">WANTS &amp; </tspan><tspan x="2.3" y="20" class="st8 st12 st13">NEEDS</tspan></text>
	</g>
	<g id="XMLID_253_">
		<g id="XMLID_260_">
			<rect id="XMLID_97_" x="106.2" y="226.6" class="st11" width="39.7" height="4.4"/>
			<text id="XMLID_96_" transform="matrix(1 0 0 1 106.1608 230.4044)" class="st6 st2 st7">OLD PARADIGM</text>
		</g>
		<line id="XMLID_313_" class="st4" x1="89.9" y1="228.8" x2="102.8" y2="228.8"/>
	</g>
	<g id="XMLID_262_">
		<g id="XMLID_266_">
			<rect id="XMLID_99_" x="106.2" y="237.3" class="st11" width="41.9" height="4.4"/>
			<text id="XMLID_98_" transform="matrix(1 0 0 1 106.1608 241.0357)" class="st8 st2 st7">NEW PARADIGM</text>
		</g>
		<line id="XMLID_51_" class="st5" x1="89.9" y1="239.5" x2="102.8" y2="239.5"/>
	</g>
</g>
</svg>
