<?xml version="1.0" encoding="utf-8"?>
<!-- Generator: Adobe Illustrator 19.0.0, SVG Export Plug-In . SVG Version: 6.00 Build 0)  -->
<svg version="1.1" id="Layer_1" xmlns="http://www.w3.org/2000/svg" xmlns:xlink="http://www.w3.org/1999/xlink" x="0px" y="0px"
	 viewBox="0 0 502 431.7" style="enable-background:new 0 0 502 431.7;" xml:space="preserve">
<style type="text/css">
	.st0{fill:none;stroke:#E6E5E7;}
	.st1{fill:#D2D1D6;}
	.st2{font-family:'GTHaptikBold';}
	.st3{font-size:16px;}
	.st4{fill:#8693A4;}
	.st5{fill:#091F40;}
	.st6{fill:#FFFFFF;}
	.st7{fill:#EF4623;}
	.st8{font-family:'GTHaptikMedium';}
	.st9{font-size:11px;}
	.st10{letter-spacing:1;}
	.st11{fill:none;stroke:#D2D1D6;stroke-width:4;}
	.st12{fill:none;stroke:#8693A4;stroke-width:4;}
	.st13{fill:none;stroke:#091F40;stroke-width:4;}
</style>
<g id="XMLID_113_">
	<line id="XMLID_475_" class="st0" x1="0.5" y1="398.7" x2="0.5" y2="61.8"/>
	<line id="XMLID_474_" class="st0" x1="168.9" y1="398.7" x2="168.9" y2="61.8"/>
	<line id="XMLID_473_" class="st0" x1="337.4" y1="398.7" x2="337.4" y2="61.8"/>
	<g id="XMLID_116_">
		<text id="XMLID_75_" transform="matrix(1 0 0 1 4.361693e-03 427.7161)" class="st1 st2 st3">Near</text>
	</g>
	<g id="XMLID_119_">
		<text id="XMLID_77_" transform="matrix(1 0 0 1 168.9397 427.7161)" class="st4 st2 st3">Mid</text>
	</g>
	<g id="XMLID_122_">
		<text id="XMLID_79_" transform="matrix(1 0 0 1 338.2479 427.7161)" class="st5 st2 st3">Far</text>
	</g>
	<g id="XMLID_128_">
		<rect id="XMLID_40_" x="159.5" y="104" class="st6" width="164" height="55.7"/>
		<path id="XMLID_37_" class="st7" d="M323,104.5v54.7H160v-54.7H323 M324,103.5H159v56.7h165V103.5L324,103.5z"/>
	</g>
	<g id="XMLID_134_">
		<rect id="XMLID_35_" x="84.5" y="202.4" class="st6" width="164" height="55.7"/>
		<path id="XMLID_32_" class="st7" d="M248,202.9v54.7H85v-54.7H248 M249,201.9H84v56.7h165V201.9L249,201.9z"/>
	</g>
	<g id="XMLID_140_">
		<rect id="XMLID_30_" x="0.6" y="300.8" class="st6" width="164" height="55.7"/>
		<path id="XMLID_26_" class="st7" d="M164.1,301.3V356H1.1v-54.7H164.1 M165.1,300.3H0.1V357h165V300.3L165.1,300.3z"/>
	</g>
	<polygon id="XMLID_141_" class="st7" points="331.7,300.3 168.7,300.3 168.7,357 331.7,357 341.8,328.6 	"/>
	<g id="XMLID_144_">
		<text id="XMLID_81_" transform="matrix(1 0 0 1 40.7026 326.1707)"><tspan x="0" y="0" class="st7 st8 st9 st10">OMNICHANNEL</tspan><tspan x="5.9" y="13" class="st7 st8 st9 st10">TO UBIQUITY</tspan></text>
	</g>
	<g id="XMLID_147_">
		<text id="XMLID_83_" transform="matrix(1 0 0 1 111.7231 234.2855)" class="st7 st8 st9 st10">MONETIZING TRUST</text>
	</g>
	<g id="XMLID_150_">
		<text id="XMLID_85_" transform="matrix(1 0 0 1 188.8232 135.9002)" class="st7 st8 st9 st10">AGILE EVERYTHING</text>
	</g>
	<g id="XMLID_153_">
		<text id="XMLID_86_" transform="matrix(1 0 0 1 28.5518 13.1214)" class="st7 st2 st9 st10">IDEA</text>
	</g>
	<g id="XMLID_156_">
		<text id="XMLID_87_" transform="matrix(1 0 0 1 131.2418 13.1214)" class="st7 st2 st9 st10">CAPABILITY</text>
	</g>
	<g id="XMLID_161_">
		<path id="XMLID_13_" class="st7" d="M19.2,1v18.2H1V1H19.2 M20.2,0H0v20.2h20.2V0L20.2,0z"/>
	</g>
	<rect id="XMLID_162_" x="102.7" y="0" class="st7" width="20.2" height="20.2"/>
	<line id="XMLID_163_" class="st11" x1="0" y1="398.7" x2="165.1" y2="398.7"/>
	<line id="XMLID_164_" class="st12" x1="168.4" y1="398.7" x2="333.5" y2="398.7"/>
	<line id="XMLID_165_" class="st13" x1="336.9" y1="398.7" x2="502" y2="398.7"/>
	<polygon id="XMLID_166_" class="st7" points="415.7,201.9 252.7,201.9 252.7,258.6 415.7,258.6 425.7,230.3 	"/>
	<polygon id="XMLID_167_" class="st7" points="490.7,103.5 327.7,103.5 327.7,160.2 490.7,160.2 500.7,131.9 	"/>
</g>
</svg>
