<?xml version="1.0" encoding="utf-8"?>
<!-- Generator: Adobe Illustrator 19.0.0, SVG Export Plug-In . SVG Version: 6.00 Build 0)  -->
<svg version="1.1" id="Layer_1" xmlns="http://www.w3.org/2000/svg" xmlns:xlink="http://www.w3.org/1999/xlink" x="0px" y="0px"
	 viewBox="0 0 93.7 21.7" style="enable-background:new 0 0 93.7 21.7;" xml:space="preserve">
<style type="text/css">
	.st0{fill-rule:evenodd;clip-rule:evenodd;fill:#EF4823;}
	.st1{fill:#EF4823;}
</style>
<g id="XMLID_9_">
	<path id="XMLID_10_" class="st0" d="M20.2,0c0,0,0,12,0,15c0,3,0.8,6.7,6.8,6.7c6,0,7.9,0,7.9,0l-0.7-3c0,0-3.6,0-5.9,0
		c-2.3,0-3.4-1-3.4-2.7s0-4.4,0-4.4h6.3l0.7-3.1h-7V3l9.2,0l0.6-3H20.2z"/>
	<path id="XMLID_11_" class="st0" d="M60.5,0c0,0,0,12,0,15c0,3,0.8,6.7,6.8,6.7c6,0,7.9,0,7.9,0l-0.7-3c0,0-3.6,0-5.9,0
		c-2.3,0-3.4-1-3.4-2.7s0-4.4,0-4.4h6.3l0.7-3.1h-7V3l9.2,0l0.6-3H60.5z"/>
	<path id="XMLID_12_" class="st0" d="M8.1,3c2.2,0,2.7,1.7,2.7,2.2c0,0.5,0,1.7,0,2.6c0,0.9-1,2.1-2.3,2.1c-1.3,0-3.4,0-3.4,0
		l6.8,11.7l5.3,0l-6-9.2c0,0,0.1,0,0.1,0c3.8-0.9,4.3-3.7,4.3-4.5c0-0.6,0,0.4,0-2.9C15.6,1.5,12,0,8.5,0C5.8,0,0,0,0,0v3
		C0,3,5.9,3,8.1,3z"/>
	<path id="XMLID_13_" class="st0" d="M79,0c0,0,0,12.8,0,15.8c0,3,1.6,5.9,5.7,5.9c4.1,0,8.9,0,8.9,0l-0.6-3c0,0-4.4,0-6.2,0
		c-1.8,0-3-1-3-2.8c0-1.8,0-12.1,0-13.1S83.2,0,81.3,0C79.5,0,79,0,79,0z"/>
	<rect id="XMLID_14_" x="0" y="4.9" class="st0" width="4.6" height="16.8"/>
	<path id="XMLID_15_" class="st1" d="M57.9,0c0,0-1.2,0-2.2,0c-1,0-2.5,0.1-3.2,2.3c-0.7,2.1-4.8,13.4-4.8,13.4
		c0,0-4.1-11.3-4.8-13.4C42.2,0.1,40.7,0,39.7,0c-1,0-2.2,0-2.2,0l8.2,21.7h4L57.9,0z"/>
</g>
</svg>
